<svg width="182" height="183" viewBox="0 0 182 183" fill="none" xmlns="http://www.w3.org/2000/svg">
<path fill-rule="evenodd" clip-rule="evenodd" d="M92 180.399C95.367 180.031 98.7076 177.803 101.892 173.762C105.382 169.333 108.569 162.863 111.265 154.777C116.651 138.618 120 116.229 120 91.4541C120 66.6789 116.651 44.2906 111.265 28.1307C108.569 20.0456 105.382 13.5747 101.892 9.14572C98.7076 5.1052 95.367 2.87722 92 2.5088V180.399ZM90 180.399V2.5088C86.633 2.87722 83.2924 5.1052 80.1081 9.14572C76.6176 13.5747 73.4305 20.0456 70.7355 28.1307C65.3489 44.2906 62 66.6789 62 91.4541C62 116.229 65.3489 138.618 70.7355 154.777C73.4305 162.863 76.6176 169.333 80.1081 173.762C83.2924 177.803 86.633 180.031 90 180.399ZM91 0.454102C40.7421 0.454102 0 41.1962 0 91.4541C0 141.712 40.7421 182.454 91 182.454C141.258 182.454 182 141.712 182 91.4541C182 41.1962 141.258 0.454102 91 0.454102ZM49.4056 28.3692C58.401 14.8762 70.1937 5.80439 83.2663 3.2145C81.6101 4.42854 80.0304 6.01309 78.5372 7.90777C74.8494 12.5873 71.572 19.2966 68.8381 27.4983C63.3669 43.912 60 66.5237 60 91.4541C60 116.384 63.3669 138.996 68.8381 155.41C71.572 163.612 74.8494 170.321 78.5372 175C80.0304 176.895 81.6101 178.48 83.2662 179.694C70.1937 177.104 58.401 168.032 49.4056 154.539C38.6716 138.438 32 116.137 32 91.4541C32 66.7712 38.6716 44.4702 49.4056 28.3692ZM132.594 154.539C123.599 168.032 111.806 177.104 98.7338 179.694C100.39 178.48 101.97 176.895 103.463 175C107.151 170.321 110.428 163.612 113.162 155.41C118.633 138.996 122 116.384 122 91.4541C122 66.5237 118.633 43.912 113.162 27.4983C110.428 19.2966 107.151 12.5873 103.463 7.90777C101.97 6.01309 100.39 4.42854 98.7337 3.2145C111.806 5.80439 123.599 14.8762 132.594 28.3692C143.328 44.4702 150 66.7712 150 91.4541C150 116.137 143.328 138.438 132.594 154.539ZM73.7897 178.791C63.7683 174.412 54.8531 166.316 47.7415 155.648C36.7598 139.176 30 116.477 30 91.4541C30 66.4314 36.7598 43.7324 47.7415 27.2598C54.8531 16.5925 63.7683 8.49618 73.7897 4.1168C32.8724 12.1336 2 48.1885 2 91.4541C2 134.72 32.8724 170.775 73.7897 178.791ZM108.21 178.791C149.128 170.775 180 134.72 180 91.4541C180 48.1885 149.128 12.1336 108.21 4.1168C118.232 8.49618 127.147 16.5925 134.258 27.2598C145.24 43.7324 152 66.4314 152 91.4541C152 116.477 145.24 139.176 134.258 155.648C127.147 166.316 118.232 174.412 108.21 178.791Z" fill="#CEFF7E"/>
</svg>

