<svg width="158" height="183" viewBox="0 0 158 183" fill="none" xmlns="http://www.w3.org/2000/svg">
<path fill-rule="evenodd" clip-rule="evenodd" d="M79.5005 0.587803L79.0005 0.299316L79.0001 0.299554L78.9996 0.299316L78.4996 0.587803L40.0002 22.7991L39.4996 23.0878L38.9993 23.3764V23.378L0.600691 45.5881L0.600209 45.5884L0.600016 45.5885L0.100895 45.8768V45.8772V46.454V90.8178L-0.00195312 90.8772L-0.000665069 91.4562L0.0994326 136.456L0.100713 137.032L0.599226 137.32L1.71283 137.963L38.9993 159.53V159.532L39.4996 159.82L40.0002 160.109L78.4991 182.32L78.4996 182.32L78.5156 182.329L78.999 182.609L78.9993 182.608L78.9996 182.609L79.483 182.329L79.4991 182.32L79.4995 182.32L117.999 160.108L118 160.109L118.499 159.82L118.5 159.82L118.504 159.818L118.999 159.532V159.531L157.399 137.32L157.4 137.32L157.417 137.31L157.899 137.031V137.031V136.454V92.0308V91.454V90.8772V46.454V45.8772V45.8768L157.4 45.5884L157.399 45.5881L157.393 45.5843L119.001 23.378V23.3764L118.501 23.0878L118 22.7991L79.5005 0.587803ZM42.0252 158.941L78.9993 180.299L115.974 158.94L79.0001 137.609L42.0252 158.941ZM80.0008 89.7217V47.0307L117.001 25.6846V68.3756L80.0008 89.7217ZM80.0008 135.877V93.1862L116.999 114.532V157.223L80.0008 135.877ZM79.0001 45.2991L42.026 23.9679L79.0001 2.60927L115.974 23.9679L79.0001 45.2991ZM40.9993 25.6846L77.9993 47.0307V89.7226L40.9993 68.3764V25.6846ZM2.10089 47.0312V89.664L38.9993 68.3764V25.7163L2.10089 47.0312ZM2.73798 136.246L2.10089 135.877V93.1876L38.9993 114.53V157.193L2.73798 136.246ZM40.9993 157.223V114.532L77.9993 93.1862V135.877L40.9993 157.223ZM155.899 135.877L118.999 157.193V114.531L155.899 93.1876V135.877ZM39.9993 70.1085L76.9982 91.454L40.0007 112.799L3.04936 91.4258L39.9993 70.1085ZM117.999 112.799L81.0012 91.4544L117.999 70.1093L154.902 91.454L117.999 112.799ZM155.899 89.7203V47.0312L119.001 25.7163V68.378L155.899 89.7203Z" fill="#CEFF7E"/>
</svg>

