<svg width="184" height="162" viewBox="0 0 184 162" fill="none" xmlns="http://www.w3.org/2000/svg">
<path fill-rule="evenodd" clip-rule="evenodd" d="M92.002 0.293457L92.9405 4.08412L182.866 159.854L183.732 161.354H182H157.797H156.303H131.88H130.602H105.987H104.901H79.1011H78.0149H53.4019H52.1241H27.7027H26.2085H1.99954H0.267578L1.1335 159.854L91.0671 4.06932L92.002 0.293457ZM80.1873 159.354H103.815L92.001 16.5809L80.1873 159.354ZM105.822 159.354H129.324L94.0247 16.7844L105.822 159.354ZM89.9763 16.7963L78.1804 159.354H54.6797L89.9763 16.7963ZM29.1968 159.354L87.7987 17.2699L52.6193 159.354H29.1968ZM96.2031 17.261L131.385 159.354H154.809L96.2031 17.261ZM85.3336 18.0013L3.73151 159.354H27.0334L85.3336 18.0013ZM156.972 159.354L98.6877 18.0398L180.268 159.354H156.972Z" fill="#CEFF7E"/>
</svg>


